0
SECTION
2
HEADER
9
$ACADVER
1
AC1015
9
$INSUNITS
70
4
9
$LUNITS
70
2
9
$LUPREC
70
4
0
ENDSEC
0
SECTION
2
TABLES
0
TABLE
2
LTYPE
70
1
0
LTYPE
2
CONTINUOUS
70
0
3
Solid line
72
65
73
0
40
0
0
ENDTAB
0
TABLE
2
LAYER
70
2
0
LAYER
2
0
70
0
62
7
6
CONTINUOUS
0
LAYER
2
A-COTAS
70
0
62
151
6
CONTINUOUS
370
-3
0
ENDTAB
0
TABLE
2
STYLE
70
1
0
STYLE
2
Standard
70
0
40
0
41
1
50
0
71
0
42
2.5
3
arial.ttf
4

0
ENDTAB
0
TABLE
2
APPID
70
3
0
APPID
2
VALLE_DIM
70
0
0
APPID
2
VALLE_MLEADER
70
0
0
APPID
2
VALLE_BLOCK
70
0
0
ENDTAB
0
ENDSEC
0
SECTION
2
BLOCKS
0
BLOCK
8
0
2
*D1
70
1
10
0
20
0
30
0
0
LINE
8
A-COTAS
10
2000
20
1100
30
0
11
8000
21
1100
31
0
0
LINE
8
A-COTAS
10
2000
20
1960
30
0
11
2000
21
980
31
0
0
LINE
8
A-COTAS
10
8000
20
1960
30
0
11
8000
21
980
31
0
0
POLYLINE
8
A-COTAS
66
1
70
1
0
VERTEX
8
A-COTAS
10
2000
20
1100
30
0
0
VERTEX
8
A-COTAS
10
2180
20
1100
30
0
0
VERTEX
8
A-COTAS
10
2180
20
1163
30
0
0
VERTEX
8
A-COTAS
10
2000
20
1163
30
0
0
SEQEND
0
POLYLINE
8
A-COTAS
66
1
70
1
0
VERTEX
8
A-COTAS
10
8000
20
1100
30
0
0
VERTEX
8
A-COTAS
10
7820
20
1100
30
0
0
VERTEX
8
A-COTAS
10
7820
20
1037
30
0
0
VERTEX
8
A-COTAS
10
8000
20
1037
30
0
0
SEQEND
0
TEXT
8
A-COTAS
10
5000
20
1010
30
0
40
250
1
6000.00 mm
0
ENDBLK
0
BLOCK
8
0
2
*D2
70
1
10
0
20
0
30
0
0
LINE
8
A-COTAS
10
1100
20
2000
30
0
11
1100
21
6000
31
0
0
LINE
8
A-COTAS
10
1960
20
2000
30
0
11
980
21
2000
31
0
0
LINE
8
A-COTAS
10
1960
20
6000
30
0
11
980
21
6000
31
0
0
POLYLINE
8
A-COTAS
66
1
70
1
0
VERTEX
8
A-COTAS
10
1100
20
2000
30
0
0
VERTEX
8
A-COTAS
10
1037
20
2000
30
0
0
VERTEX
8
A-COTAS
10
1037
20
2180
30
0
0
VERTEX
8
A-COTAS
10
1100
20
2180
30
0
0
SEQEND
0
POLYLINE
8
A-COTAS
66
1
70
1
0
VERTEX
8
A-COTAS
10
1100
20
6000
30
0
0
VERTEX
8
A-COTAS
10
1163
20
6000
30
0
0
VERTEX
8
A-COTAS
10
1163
20
5820
30
0
0
VERTEX
8
A-COTAS
10
1100
20
5820
30
0
0
SEQEND
0
TEXT
8
A-COTAS
10
1010
20
4000
30
0
40
250
1
4000.00 mm
0
ENDBLK
0
ENDSEC
0
SECTION
2
ENTITIES
0
POLYLINE
8
0
66
1
70
1
0
VERTEX
8
0
10
2100
20
2100
30
0
0
VERTEX
8
0
10
1900
20
1900
30
0
0
VERTEX
8
0
10
8100
20
1900
30
0
0
VERTEX
8
0
10
7900
20
2100
30
0
0
SEQEND
0
POLYLINE
8
0
66
1
70
1
0
VERTEX
8
0
10
7900
20
2100
30
0
0
VERTEX
8
0
10
8100
20
1900
30
0
0
VERTEX
8
0
10
8100
20
6100
30
0
0
VERTEX
8
0
10
7900
20
5900
30
0
0
SEQEND
0
POLYLINE
8
0
66
1
70
1
0
VERTEX
8
0
10
7900
20
5900
30
0
0
VERTEX
8
0
10
8100
20
6100
30
0
0
VERTEX
8
0
10
1900
20
6100
30
0
0
VERTEX
8
0
10
2100
20
5900
30
0
0
SEQEND
0
POLYLINE
8
0
66
1
70
1
0
VERTEX
8
0
10
2100
20
5900
30
0
0
VERTEX
8
0
10
1900
20
6100
30
0
0
VERTEX
8
0
10
1900
20
1900
30
0
0
VERTEX
8
0
10
2100
20
2100
30
0
0
SEQEND
0
POLYLINE
8
0
66
1
70
0
0
VERTEX
8
0
10
3053.272655
20
2100
30
0
0
VERTEX
8
0
10
3053.272655
20
1900
30
0
0
SEQEND
0
POLYLINE
8
0
66
1
70
0
0
VERTEX
8
0
10
3953.272655
20
2100
30
0
0
VERTEX
8
0
10
3953.272655
20
1900
30
0
0
SEQEND
0
POLYLINE
8
0
66
1
70
0
0
VERTEX
8
0
10
3053.272655
20
2100
30
0
0
VERTEX
8
0
10
3053.272655
20
3000
30
0
0
SEQEND
0
POLYLINE
8
0
66
1
70
0
0
VERTEX
8
0
10
3053.272655
20
3000
30
0
0
VERTEX
8
0
10
3141.488082
20
2995.666254
30
0
0
VERTEX
8
0
10
3228.853945
20
2982.706752
30
0
0
VERTEX
8
0
10
3314.528865
20
2961.246302
30
0
0
VERTEX
8
0
10
3397.687744
20
2931.491579
30
0
0
VERTEX
8
0
10
3477.529718
20
2893.729138
30
0
0
VERTEX
8
0
10
3553.285865
20
2848.322651
30
0
0
VERTEX
8
0
10
3624.226611
20
2795.709408
30
0
0
VERTEX
8
0
10
3689.668758
20
2736.396103
30
0
0
VERTEX
8
0
10
3748.982063
20
2670.953956
30
0
0
VERTEX
8
0
10
3801.595306
20
2600.01321
30
0
0
VERTEX
8
0
10
3847.001793
20
2524.257063
30
0
0
VERTEX
8
0
10
3884.764235
20
2444.415089
30
0
0
VERTEX
8
0
10
3914.518957
20
2361.25621
30
0
0
VERTEX
8
0
10
3935.979408
20
2275.58129
30
0
0
VERTEX
8
0
10
3948.938909
20
2188.215426
30
0
0
VERTEX
8
0
10
3953.272655
20
2100
30
0
0
SEQEND
0
POLYLINE
8
0
66
1
70
0
0
VERTEX
8
0
10
6100.654531
20
5900
30
0
0
VERTEX
8
0
10
6100.654531
20
6100
30
0
0
SEQEND
0
POLYLINE
8
0
66
1
70
0
0
VERTEX
8
0
10
4900.654531
20
5900
30
0
0
VERTEX
8
0
10
4900.654531
20
6100
30
0
0
SEQEND
0
POLYLINE
8
0
66
1
70
0
0
VERTEX
8
0
10
6100.654531
20
6000
30
0
0
VERTEX
8
0
10
4900.654531
20
6000
30
0
0
SEQEND
0
POLYLINE
8
0
66
1
70
0
0
VERTEX
8
0
10
6100.654531
20
5966.666667
30
0
0
VERTEX
8
0
10
4900.654531
20
5966.666667
30
0
0
SEQEND
0
POLYLINE
8
0
66
1
70
0
0
VERTEX
8
0
10
6100.654531
20
6033.333333
30
0
0
VERTEX
8
0
10
4900.654531
20
6033.333333
30
0
0
SEQEND
0
POLYLINE
8
0
66
1
70
1
0
VERTEX
8
0
10
2200
20
2200
30
0
0
VERTEX
8
0
10
3700
20
2200
30
0
0
VERTEX
8
0
10
3700
20
3700
30
0
0
VERTEX
8
0
10
2200
20
3700
30
0
0
SEQEND
0
HATCH
100
AcDbEntity
8
0
100
AcDbHatch
10
0
20
0
30
0
210
0
220
0
230
1
2
ANSI31
70
0
71
0
91
1
92
2
72
0
73
1
93
4
10
2200
20
2200
10
3700
20
2200
10
3700
20
3700
10
2200
20
3700
97
0
75
0
76
1
52
0
41
53.033009
77
0
78
1
53
45
43
2200
44
2200
45
-37.5
46
37.5
79
0
98
1
10
2200
20
2200
30
0
0
MTEXT
100
AcDbEntity
8
0
100
AcDbMText
10
4200
20
4400
30
0
40
200
41
1118
71
1
72
1
1
{\fArial|b0|i0;RECÁMARA 1}
7
Standard
50
0
73
2
44
1.2
75
0
0
DIMENSION
8
A-COTAS
2
*D1
10
8000
20
2000
30
0
11
5000
21
1010
31
0
70
32
1
6000.00 mm
3
Standard
42
6000
13
2000
23
2000
33
0
14
8000
24
2000
34
0
40
-900
271
2
1001
VALLE_DIM
1000
kind=linear
1000
axis=x
1000
units=mm
1000
sourceUnit=mm
1000
alternateUnits=
1000
prefix=
1000
suffix=
1000
arrowhead=closed-filled
1000
extensionLines=1
1000
arrowSize=180
1000
offset=-900
1000
radius=0
1000
extensionGap=40
1000
extensionOvershoot=120
1000
textGap=90
1000
textOverride=
1000
annotative=
1000
textHeight=
1000
textStyle=
1000
textColor=
1000
dimLineColor=
1000
extensionLineColor=
1000
textVertical=
1000
textJustification=
1000
tolerance=
1000
toleranceUpper=
1000
toleranceLower=
1000
toleranceDecimals=
1000
toleranceFit=
0
DIMENSION
8
A-COTAS
2
*D2
10
2000
20
6000
30
0
11
1010
21
4000
31
0
70
32
1
4000.00 mm
3
Standard
42
4000
13
2000
23
2000
33
0
14
2000
24
6000
34
0
40
-900
271
2
1001
VALLE_DIM
1000
kind=linear
1000
axis=y
1000
units=mm
1000
sourceUnit=mm
1000
alternateUnits=
1000
prefix=
1000
suffix=
1000
arrowhead=closed-filled
1000
extensionLines=1
1000
arrowSize=180
1000
offset=-900
1000
radius=0
1000
extensionGap=40
1000
extensionOvershoot=120
1000
textGap=90
1000
textOverride=
1000
annotative=
1000
textHeight=
1000
textStyle=
1000
textColor=
1000
dimLineColor=
1000
extensionLineColor=
1000
textVertical=
1000
textJustification=
1000
tolerance=
1000
toleranceUpper=
1000
toleranceLower=
1000
toleranceDecimals=
1000
toleranceFit=
0
ENDSEC
0
EOF
